<?xml version="1.0" encoding="UTF-8"?>
<svg xmlns="http://www.w3.org/2000/svg" id="a" width="865.76" height="682.89" viewBox="0 0 865.76 682.89">
  <path d="M65.31,603.01l233.06-293.12c4.73-5.95,13.38-6.93,19.33-2.21,.93,.74,1.75,1.59,2.46,2.54l145.09,193.91,135.82-222.35c3.98-6.49,12.46-8.52,18.94-4.54,2.05,1.25,3.73,3.02,4.88,5.13l175.05,320.73-734.64-.09Z" fill="#e6e7e8" stroke="#002346" stroke-miterlimit="10"></path>
  <polyline points="567.73 336.36 572.45 443.39 629.48 475.15 598.61 541.68 669.82 599.97" fill="#e6e7e8" stroke="#002346" stroke-miterlimit="10"></polyline>
  <path d="M310.16,304.74l-25.61,88.24,56.13,55.58-33.83,38.32-17.34,47.79s56.33,2.82,58.89,2.62,22.05,64.84,22.05,64.84" fill="none" stroke="#002346" stroke-linecap="round" stroke-linejoin="round"></path>
  <g id="b">
    <g>
      <path d="M626.92,602.57h100c-1.94-12.24-9.7-10.09-10.83-29.1-.52-9.55,8.32-21.34,7.55-33.9-.62-10.32-10.81-20.92-11.64-32.73-.72-10.67,7.97-22.49,7.14-33.99-.8-10.87-11.12-21.34-12.03-32.58-.91-11.23,7.61-22.95,6.62-34.09-.99-11.14-11.53-21.34-12.63-32.34-1.14-11.29,7.1-23.44,5.82-34.25-1.34-11.47-12.17-21.34-13.58-31.92-1.65-11.78,6.01-24.33,4.23-34.5-2.19-12.44-13.78-21.44-16.22-30.62-4.54-17.09-3.88-33.57-9.33-34.65-5.82-1.14-7.02,15.02-11.35,33.08-2.19,9.06-13.58,18.26-15.37,30.71-1.51,10.07,6.5,22.33,5.18,34.05-1.16,10.48-11.64,20.57-12.75,31.98-.95,10.71,7.61,22.55,6.75,33.76-.81,10.88-11.04,21.34-11.76,32.36-.72,11.02,8.13,22.66,7.53,33.59-.62,11.21-10.67,21.79-11.18,32.58-.56,11.39,8.44,22.9,8.01,33.47-.49,11.64-10.4,22.45-10.77,32.69-.45,12.44,8.69,23.92,8.4,33.39-.6,20.55-10.01,16.3-10.34,32.83l2.54,.17Z" fill="#7cd295" stroke="#002346" stroke-miterlimit="10"></path>
      <line x1="669.82" y1="240.9" x2="669.82" y2="603.01" fill="none" stroke="#002346" stroke-linecap="round" stroke-linejoin="round"></line>
      <polyline points="685.42 278.35 669.14 292.4 655.83 274.64" fill="none" stroke="#002346" stroke-linecap="round" stroke-linejoin="round"></polyline>
      <polyline points="685.42 340.5 669.14 354.56 655.83 336.79" fill="none" stroke="#002346" stroke-linecap="round" stroke-linejoin="round"></polyline>
      <polyline points="685.42 398.96 669.14 413.02 655.83 395.25" fill="none" stroke="#002346" stroke-linecap="round" stroke-linejoin="round"></polyline>
      <polyline points="685.42 468.52 669.14 482.56 655.83 464.81" fill="none" stroke="#002346" stroke-linecap="round" stroke-linejoin="round"></polyline>
      <polyline points="685.42 538.81 669.14 552.86 655.83 535.11" fill="none" stroke="#002346" stroke-linecap="round" stroke-linejoin="round"></polyline>
      <path d="M521.7,602.57h86.71c-1.67-10.61-8.48-8.75-9.39-25.22-.45-8.27,7.22-18.51,6.56-29.38-.56-8.96-9.39-18.14-10.07-28.39-.62-9.26,6.91-19.4,6.19-29.47-.7-9.43-9.7-18.45-10.44-28.25s6.6-19.91,5.82-29.57c-.78-9.66-9.99-18.53-10.96-28.06-.97-9.53,6.15-20.31,5.06-29.69-1.16-9.93-10.54-18.53-11.82-27.69-1.42-10.19,5.24-21.09,3.69-29.9-1.94-10.79-11.95-18.59-14.07-26.54-3.88-14.82-3.45-29.1-8.09-30.05-4.97-.99-6.09,13.02-9.86,28.68-1.94,7.76-11.64,15.83-13.33,26.64-1.3,8.73,5.65,19.4,4.5,29.51-1.01,9.1-10.15,17.85-11.04,27.73-.85,9.31,6.58,19.56,5.82,29.28-.76,9.72-9.57,18.47-10.19,28.08-.62,9.6,7.04,19.65,6.52,29.1-.52,9.45-9.26,18.9-9.7,28.25-.47,9.88,7.33,19.85,6.95,29.1-.41,10.17-9,19.4-9.31,28.35-.39,10.79,7.53,20.74,7.28,28.95-.52,17.83-8.67,14.13-8.98,28.48l2.15,.06Z" fill="#7cd295" stroke="#002346" stroke-miterlimit="10"></path>
      <line x1="558.91" y1="288.96" x2="558.91" y2="601.63" fill="none" stroke="#002346" stroke-linecap="round" stroke-linejoin="round"></line>
      <polyline points="572.45 321.42 558.33 333.61 546.78 318.22" fill="none" stroke="#002346" stroke-linecap="round" stroke-linejoin="round"></polyline>
      <polyline points="572.45 375.32 558.33 387.51 546.78 372.12" fill="none" stroke="#002346" stroke-linecap="round" stroke-linejoin="round"></polyline>
      <polyline points="572.45 426 558.33 438.21 546.78 422.8" fill="none" stroke="#002346" stroke-linecap="round" stroke-linejoin="round"></polyline>
      <polyline points="572.45 486.33 558.33 498.51 546.78 483.13" fill="none" stroke="#002346" stroke-linecap="round" stroke-linejoin="round"></polyline>
      <polyline points="572.45 547.29 558.33 559.48 546.78 544.07" fill="none" stroke="#002346" stroke-linecap="round" stroke-linejoin="round"></polyline>
    </g>
    <path d="M91.4,602.57h86.71c-1.67-10.61-8.48-8.75-9.37-25.22-.47-8.27,7.2-18.51,6.54-29.38-.54-8.96-9.37-18.14-10.07-28.39-.6-9.26,6.93-19.4,6.19-29.47-.68-9.43-9.7-18.45-10.44-28.25-.74-9.8,6.62-19.91,5.82-29.57-.8-9.66-9.97-18.53-10.94-28.06s6.15-20.31,5.06-29.69c-1.16-9.93-10.56-18.53-11.82-27.69-1.42-10.19,5.22-21.09,3.67-29.9-1.94-10.79-11.95-18.59-14.05-26.54-3.88-14.82-3.45-29.1-8.09-30.05-4.97-.99-6.11,13.02-9.86,28.68-1.94,7.76-11.64,15.83-13.33,26.64-1.3,8.73,5.63,19.4,4.5,29.51-1.03,9.1-10.17,17.85-11.06,27.73-.83,9.31,6.6,19.56,5.82,29.28-.78,9.72-9.58,18.47-10.21,28.08s7.04,19.65,6.52,29.1c-.52,9.45-9.24,18.9-9.7,28.25-.49,9.88,7.31,19.85,6.95,29.1-.43,10.17-9.02,19.4-9.33,28.35-.39,10.79,7.55,20.74,7.3,28.95-.52,17.83-8.69,14.13-8.98,28.48l2.17,.06Z" fill="#7cd295" stroke="#002346" stroke-miterlimit="10"></path>
    <line x1="128.68" y1="288.96" x2="128.68" y2="601.63" fill="none" stroke="#002346" stroke-linecap="round" stroke-linejoin="round"></line>
    <polyline points="142.22 321.42 128.09 333.61 116.55 318.22" fill="none" stroke="#002346" stroke-linecap="round" stroke-linejoin="round"></polyline>
    <polyline points="142.22 375.32 128.09 387.51 116.55 372.12" fill="none" stroke="#002346" stroke-linecap="round" stroke-linejoin="round"></polyline>
    <polyline points="142.22 426 128.09 438.21 116.55 422.8" fill="none" stroke="#002346" stroke-linecap="round" stroke-linejoin="round"></polyline>
    <polyline points="142.22 486.33 128.09 498.51 116.55 483.13" fill="none" stroke="#002346" stroke-linecap="round" stroke-linejoin="round"></polyline>
    <polyline points="142.22 547.29 128.09 559.48 116.55 544.07" fill="none" stroke="#002346" stroke-linecap="round" stroke-linejoin="round"></polyline>
  </g>
  <g>
    <rect x="426.08" y="550.4" width="25.35" height="8.97" transform="translate(-111.33 110.12) rotate(-12.71)" fill="#002346" stroke="#002346" stroke-miterlimit="10"></rect>
    <path d="M360.7,477.91s-7.25,5.87-14.15,19.68l-30.38,67.67,5.25,2.23,43.77-85.09-4.49-4.49Z" fill="#e6e7e8" stroke="#002346" stroke-miterlimit="10"></path>
    <circle cx="317.2" cy="571.81" r="10.36" fill="#002346" stroke="#002346" stroke-miterlimit="10"></circle>
    <circle cx="555.41" cy="571.81" r="10.36" fill="#002346" stroke="#002346" stroke-miterlimit="10"></circle>
    <path d="M565.75,572.52c-.35,5.16-4.47,9.28-9.62,9.62-.47,.03-.94,.05-1.41,.11l-96.65,11.65c-10.3,0-18.64-8.35-18.64-18.64s8.35-18.64,18.64-18.64l91.83,2.76s14.57,.66,15.82,11.72c.05,.47,.07,.94,.04,1.42Z" fill="none" stroke="#002346" stroke-linecap="round" stroke-linejoin="round"></path>
    <path d="M554.72,511.74c-33.18,0-60.07,26.9-60.07,60.07s26.9,60.07,60.07,60.07,60.07-26.9,60.07-60.07-26.9-60.07-60.07-60.07Zm0,115.31c-30.51,0-55.24-24.73-55.24-55.24s24.73-55.24,55.24-55.24,55.24,24.73,55.24,55.24-24.73,55.24-55.24,55.24Z" fill="#e6e7e8" stroke="#002346" stroke-miterlimit="10"></path>
    <path d="M554.72,502.42c-38.33,0-69.39,31.07-69.39,69.39s31.07,69.39,69.39,69.39,69.39-31.07,69.39-69.39-31.07-69.39-69.39-69.39Zm0,129.47c-33.18,0-60.07-26.9-60.07-60.07s26.9-60.07,60.07-60.07,60.07,26.9,60.07,60.07-26.9,60.07-60.07,60.07Z" fill="#002346" stroke="#002346" stroke-miterlimit="10"></path>
    <g>
      <path d="M318.58,511.74c-33.18,0-60.07,26.9-60.07,60.07s26.9,60.07,60.07,60.07,60.07-26.9,60.07-60.07-26.9-60.07-60.07-60.07Zm0,115.31c-30.51,0-55.24-24.73-55.24-55.24s24.73-55.24,55.24-55.24,55.24,24.73,55.24,55.24-24.73,55.24-55.24,55.24Z" fill="#e6e7e8" stroke="#002346" stroke-miterlimit="10"></path>
      <path d="M318.58,502.42c-38.33,0-69.39,31.07-69.39,69.39s31.07,69.39,69.39,69.39,69.39-31.07,69.39-69.39-31.07-69.39-69.39-69.39Zm0,129.47c-33.18,0-60.07-26.9-60.07-60.07s26.9-60.07,60.07-60.07,60.07,26.9,60.07,60.07-26.9,60.07-60.07,60.07Z" fill="#002346" stroke="#002346" stroke-miterlimit="10"></path>
    </g>
    <polygon points="495.34 484.12 503.63 457.19 512.35 457.26 503.63 486.88 495.34 484.12" fill="#e6e7e8" stroke="#002346" stroke-miterlimit="10"></polygon>
    <path d="M466.87,541.68c-9.17,.93-17.66,7.51-17.66,7.51l-34.01,4.74c0-3.95,3.62-6.04,5.73-6.92,1.58-.66,3.14-1.41,4.58-2.34,6.51-4.19,12.34-10.66,14.77-13.53,1.03-1.22,2.65-1.83,4.2-1.46,2.73,.66,4.62,2.99,5.39,4.17,.64,1.01,1.42,1.92,2.38,2.64,3.64,2.71,5.55-.15,5.55-.15l4.72-4.27,4.35,9.6Z" fill="#e7e94e" stroke="#002346" stroke-miterlimit="10"></path>
    <path d="M465.6,550.91l-45.08,5.08c-5.65,.68-5.31-2.06-5.31-2.06l34.01-4.74s8.49-6.58,17.66-7.51l1.62,4.62c.74,2.11-.67,4.36-2.9,4.61Z" fill="#fff" stroke="#002346" stroke-miterlimit="10"></path>
    <path d="M446.32,455.12l.98,7.31-14.04,14.6s-4.29,3.98-2.51,10.12l8.86,30.91-7.41,3.04c-1.31,.54-2.79-.18-3.17-1.54l-21.19-74.15c-2.38-8.35,2.48-17.04,10.85-19.36l76.66-21.33,13.12,13.12-47.64,33.83-14.5,3.45Z" fill="#030359" stroke="#002346" stroke-miterlimit="10"></path>
    <line x1="444.94" y1="442" x2="446.32" y2="455.12" fill="none" stroke="#002346" stroke-linecap="round" stroke-linejoin="round"></line>
    <path d="M556.84,565.77c-1.06-.24-2.1-.21-3.06,.06l-52.92-69.96,4.14-10.36-11.05-4.14-4.14,11.74-36.6,6.9-69.74-42.12,3.45-8.98-13.12-5.52-15.19,33.14,2.07,1.38c.69,6.21-10.36,29-10.36,29l-32.01,58.79c-.62-.12-1.27-.13-1.93-.06-2.75,.33-4.99,2.57-5.36,5.31-.51,3.81,2.43,7.06,6.14,7.07,3.1,0,5.65-2.13,6.15-5.19,.2-1.23,.03-2.44-.42-3.48l38.48-60.38c7.03-12.15,8.15-26.07,8.27-28.07,0-.12,.13-.18,.24-.13l2.54,1.27,3.41-8.18s.08-.05,.1-.01c16.67,27.01,86.25,103.48,86.25,103.48l88-2.15h0c1.1,1.7,3.02,2.84,5.21,2.84,3.85,0,6.89-3.51,6.08-7.51-.47-2.33-2.33-4.23-4.65-4.76Zm-169.55-93.17l68,39.15,31.07-8.98-20.71,64.22-78.45-94.28c-.05-.06,.02-.15,.09-.11Zm90.09,94.24l20.71-60.62,51.1,62.14-71.81-1.53Z" fill="#fff" stroke="#002346" stroke-miterlimit="10"></path>
    <circle cx="458.06" cy="575.27" r="18.64" fill="#fff" stroke="#002346" stroke-miterlimit="10"></circle>
    <path d="M500.87,442.69h30.58c2.94,0,5.33,2.39,5.33,5.33v3.25c0,3.65-2.96,6.61-6.61,6.61h-29.29v-15.19h0Z" fill="#002346" stroke="#002346" stroke-miterlimit="10"></path>
    <path d="M377.27,426.81l2.46-10.44c.18-.75,.87-1.27,1.64-1.23l8.9,.47c1.57,.08,2.89-1.17,2.89-2.74h0c0-1.47-1.16-2.68-2.63-2.74l-13.41-.54c-.72-.03-1.37,.43-1.59,1.11l-5.15,16.1h6.9Z" fill="#e6e7e8" stroke="#002346" stroke-miterlimit="10"></path>
    <ellipse cx="392.41" cy="413.69" rx="4.78" ry="4.14" fill="#002346" stroke="#002346" stroke-miterlimit="10"></ellipse>
    <path d="M389.24,416.66s-4.37,1.86-4.37-2.97c0,0,0-7.6,6.21-6.9h14.74c1.67,0,3.32-.3,4.88-.89l22.08-8.29,8.46,13.87-31.38,7.09c-1.58,.36-3.14,.77-4.69,1.26-4.35,1.39-15.09,4.19-14.34-2.24,0,0,3.43,.97,5.64-1.12,1.75-1.67,1.58-4.58-.46-5.88-.03-.02-.05-.03-.08-.05-1.58-.96-3.56-1.12-5.28-.45-1.29,.51-2.68,1.53-3.02,3.6,0,0-.23,1.8,1.61,2.97Z" fill="#f1b2c0" stroke="#002346" stroke-miterlimit="10"></path>
    <path d="M533.32,406.1s13.12,16.57-1.38,34.52l-64.67,54.46c-.56,.47-.8,1.23-.6,1.94l21.28,60.07-27.21,23.43c-1.25,1.09-3.21,.51-3.66-1.09l-26.33-92.29c-1.04-3.58-.09-7.44,2.51-10.12l60.02-61.96,13.12-11.74h24.86l2.07,2.76Z" fill="#030359" stroke="#002346" stroke-miterlimit="10"></path>
    <path d="M481.19,335.07c-4.4,1.46-8.37,3.99-11.56,7.36l-5.36,5.67s-6.9,6.21-10.36,20.02c0,0-3.45,10.36-8.98,16.57,0,0-2.4,1.44-2.4,5.52,0,1.72-.98,3.29-2.58,3.93l-7.45,2.98,9.67,15.88s14.36-3.92,20.87-13.65c.37-.56,.75-1.11,1.18-1.62l1.47-1.76c.63-.76,1.34-1.45,2.09-2.08,1.14-.95,3.12-3.65,2.73-10.84,0-.14,.16-.21,.24-.1l12.85,15.55,5.52-3.45s10.36,6.21,9.67,19.33l10.34-8.52c.9-.74,2.04-1.11,3.2-1.04l20.98,1.27s1.38-16.57-9.67-22.1l-2.82-25.39c-.78-7.01-3.65-13.69-8.46-18.85-4.1-4.4-10.05-8.35-18.41-8.93l-12.77,4.24Z" fill="#e7e94e" stroke="#002346" stroke-miterlimit="10"></path>
    <line x1="489.13" y1="395.05" x2="504.32" y2="382.62" fill="none" stroke="#002346" stroke-linecap="round" stroke-linejoin="round"></line>
    <path d="M500.08,353.96s2.76-14.5,13.96-11.64" fill="none" stroke="#002346" stroke-linecap="round" stroke-linejoin="round"></path>
    <path d="M471.68,384.01c-1.33-1.8-2.58-3.69-2.85-4.73-.4-1.56-.45-3.18-.25-4.77s.53-4.28,.53-5.69" fill="none" stroke="#002346" stroke-linecap="round" stroke-linejoin="round"></path>
    <path d="M468.93,343.25l.08,24.39s-.05,.07-.08,.03c-.39-.56-2.11-3.34-3.05-9.56-.14-.95-.21-1.91-.23-2.87l-.14-8.61,3.42-3.38Z" fill="#030359" stroke="#002346" stroke-miterlimit="10"></path>
    <path d="M498.53,332.41c-1.59,1.61-4.79,5.45-6.64,11.82-1.61,5.56-1.66,11.45-.35,17.09,1.24,5.31,3.59,13.78,7.05,19.58,.06,.09,.2,.05,.2-.06v-12.03s-4.83-14.5-.69-25.55c0,0,2.43-6.28,6.68-8.96,.22-.14,.22-.46,0-.59-.65-.36-1.97-1.01-4.12-1.78-.74-.27-1.58-.08-2.13,.48Z" fill="#030359" stroke="#002346" stroke-miterlimit="10"></path>
    <path d="M382.79,435.79l12.85-.49c3.24-.12,6.27-1.65,8.3-4.19l17.52-21.9c2.51-3.14,6.66-4.49,10.54-3.42l9.07,2.49-1.66,4.04-7.54-1.77c-2.56-.6-5.23,.33-6.86,2.4l-19.65,24.28c-2.05,2.6-5.14,4.16-8.45,4.26l-17.57,.53,3.45-6.21Z" fill="#e6e7e8" stroke="#002346" stroke-miterlimit="10"></path>
    <path d="M314.98,424.05h66.83c3.07,0,5.35,2.82,4.7,5.82-1.93,8.91-6.62,26.6-16.08,42.86-.87,1.49-2.45,2.41-4.17,2.41h-44.7c-1.91,0-3.63-1.12-4.4-2.86-2.47-5.63-7.28-19.71-6.99-43.48,.03-2.63,2.18-4.75,4.81-4.75Z" fill="#e7e94e" stroke="#002346" stroke-miterlimit="10"></path>
    <path d="M337.91,468.93s-3.45-16.57-2.76-37.29" fill="none" stroke="#002346" stroke-linecap="round" stroke-linejoin="round"></path>
    <path d="M498.79,409.55s1.38,6.21-2.07,6.21c-2.85,0-4.83-3.45-4.83-3.45l6.9-2.76Z" fill="#e7e94e" stroke="#002346" stroke-miterlimit="10"></path>
    <path d="M516.66,338.82v-3.67c0-.79-.74-1.37-1.51-1.19l-7.33,1.72-1.78-1.02,10.17-4.14c1.35-.55,2.88,.26,3.17,1.7l1.33,6.48,4.32-.26s6.9-1.38,8.98,4.14c0,0,5.52,26.93,13.81,34.52,0,0-1.38,3.45-7.6,3.45,0,0,3.78,9.71,4.18,17.21,.11,2-1.15,3.85-3.05,4.45-1.8,.57-4.43,.89-7.98,.09,0,0-.15-12.44-9.72-18.3l-2.82-25.39s-.08-10.34-8.98-19.41l4.81-.39Z" fill="#030359" stroke="#002346" stroke-miterlimit="10"></path>
    <path d="M531.25,342.57s3.45,24.86,8.98,37.98" fill="none" stroke="#002346" stroke-linecap="round" stroke-linejoin="round"></path>
    <line x1="525.03" y1="380.55" x2="538.84" y2="377.1" fill="none" stroke="#002346" stroke-linecap="round" stroke-linejoin="round"></line>
    <path d="M523.65,384s1.38,2.76-3.45,8.98l-8.29,10.36" fill="none" stroke="#002346" stroke-linecap="round" stroke-linejoin="round"></path>
    <path d="M520.2,392.98s7.23,3.34,14.71,4.02c1.45,.13,2.57,1.34,2.58,2.8h0c.01,1.77-1.58,3.13-3.33,2.82-4.08-.72-11.08-2.46-16.38-6.44l2.42-3.21Z" fill="#030359" stroke="#002346" stroke-miterlimit="10"></path>
    <path d="M484.29,560.08l8.98,20.71-4.14,4.83s-2.76,4.14-7.6-.69c0,0-3.45-5.52-8.98-3.45l-3.26-8.34,14.99-13.07Z" fill="#f1b2c0" stroke="#002346" stroke-miterlimit="10"></path>
    <rect x="459.22" y="602.18" width="25.35" height="8.97" transform="translate(-186.56 210.22) rotate(-21.07)" fill="#002346" stroke="#002346" stroke-miterlimit="10"></rect>
    <line x1="369.67" y1="480.67" x2="360.7" y2="477.91" fill="none" stroke="#002346" stroke-linecap="round" stroke-linejoin="round"></line>
    <line x1="383.48" y1="457.88" x2="377.62" y2="471.35" fill="none" stroke="#002346" stroke-linecap="round" stroke-linejoin="round"></line>
    <path d="M493.96,312.88l-2.76,25.55s-1.08,9.69-4.18,13.38c-.84,.99-2.3,1.1-3.27,.22-.3-.27-.65-1-1.04-1.97-1.77-4.39-3.27-8.89-4.49-13.46l-2.27-8.52s-1.32-.02,2.13-4.85l6.21-12.43,2.07-2.07,7.6,4.14Z" fill="#f1b2c0" stroke="#002346" stroke-miterlimit="10"></path>
    <rect x="464.47" y="297.52" width="23.02" height="35.73" rx="11.51" ry="11.51" transform="translate(976.85 589.53) rotate(175.17)" fill="#f1b2c0" stroke="#002346" stroke-miterlimit="10"></rect>
    <line x1="499.39" y1="360.87" x2="498.7" y2="387.11" fill="none" stroke="#002346" stroke-linecap="round" stroke-linejoin="round"></line>
    <rect x="437.63" y="412.51" width="29.25" height="7.15" rx="2.27" ry="2.27" transform="translate(189.54 -139.47) rotate(22.08)" fill="#002346" stroke="#002346" stroke-miterlimit="10"></rect>
    <path d="M459.44,409.55c14.47-2.89,29.69-14.5,29.69-14.5,6.9,3.45,9.67,14.5,9.67,14.5-5.07,2.84-39.36,11.74-39.36,11.74-6.21,4.14-8.29,.69-8.29,.69-2.76,.69-3.45-.69-3.45-.69-3.45,0-3.45-2.76-3.45-2.76-6.21-1.38,4.83-7.6,4.83-7.6l-4.47-1.79s2.4-3.04,7.23-.97c0,0,4.14,2.07,7.6,1.38Z" fill="#f1b2c0" stroke="#002346" stroke-miterlimit="10"></path>
    <path d="M498.79,589.77c-8.98,2.07-16.57,9.67-16.57,9.67l-33.14,8.98c-.49-3.91,2.83-6.44,4.81-7.58,1.48-.86,2.93-1.79,4.25-2.89,7.8-6.55,14.41-16.45,14.41-16.45,4.18-1.57,7.18,1.22,8.39,2.67,.77,.92,1.65,1.73,2.69,2.32,3.96,2.23,5.49-.84,5.49-.84l4.14-4.83,5.52,8.98Z" fill="#e7e94e" stroke="#002346" stroke-miterlimit="10"></path>
    <path d="M498.69,599.08l-44.09,10.71c-5.52,1.38-5.52-1.38-5.52-1.38l33.14-8.98s7.6-7.6,16.57-9.67l2.19,4.38c1,2-.12,4.41-2.29,4.94Z" fill="#fff" stroke="#002346" stroke-miterlimit="10"></path>
    <g>
      <ellipse cx="489.24" cy="288.81" rx="8.37" ry="7.79" fill="#002346" stroke="#002346" stroke-miterlimit="10"></ellipse>
      <ellipse cx="486.03" cy="293.58" rx="5.62" ry="5.99" fill="#e7e94e" stroke="#002346" stroke-miterlimit="10"></ellipse>
      <path d="M468.64,303.66c1.57,1.33,4.95,3.36,11.27,3.87,0,0-.3,4.25,4.66,7.99,1.44,1.09,2.5,2.68,2.89,4.52,.63,2.92,1.48,6.54-3.15,10.31,0,0,3.39,2.06,7.83,.48,0,0,2.79,2.97,7.39,2.72,1.89-.1,3.62-1.33,4.36-3.19,.98-2.48,1.39-6.93-1.4-14.55,0,0-6.68-26.86-21.49-26.85,0,0-6.82-1.13-12.64,2.19-5.86,3.35-6.74,14.99-4.47,19.82l.98-2.33c.79-1.88,.95-2.26,1.38-4.11,.04-.18,.12-.36,.22-.52h0c.5-.77,1.47-.94,2.16-.36Z" fill="#002346" stroke="#002346" stroke-miterlimit="10"></path>
    </g>
    <ellipse cx="490.12" cy="314.1" rx="3.02" ry="3.66" fill="#f1b2c0" stroke="#002346" stroke-miterlimit="10"></ellipse>
    <line x1="444.25" y1="418.53" x2="450.42" y2="414.38" fill="none" stroke="#002346" stroke-linecap="round" stroke-linejoin="round"></line>
    <line x1="447.7" y1="421.29" x2="454.65" y2="416.46" fill="none" stroke="#002346" stroke-linecap="round" stroke-linejoin="round"></line>
    <line x1="451.15" y1="421.98" x2="457.85" y2="418.53" fill="none" stroke="#002346" stroke-linecap="round" stroke-linejoin="round"></line>
  </g>
  <g id="c">
    <path d="M599.32,192.53c-8.65-4.71-12.57-.78-15.74-4.71-3.16-3.94,8.65-14.16-14.94-24.39,0,0-1.57-22.02-33.82-22.8-32.25-.78-23.57,22.02-32.23,27.51s-11.02-3.14-19.67,2.37c-8.65,5.51-4.71,16.51-11.8,18.1-7.08,1.59-16.51-7.08-25.22-1.59-8.71,5.49-8.6,10.23-12.53,10.23s-11.8-3.16-16.51,0c-4.71,3.16-10.23,7.06-10.23,7.06h199.01s2.35-7.06-6.33-11.78Z" fill="none" stroke="#002346" stroke-miterlimit="10"></path>
    <path d="M599.32,192.53c-8.65-4.71-12.57-.78-15.74-4.71-3.16-3.94,8.65-14.16-14.94-24.39,0,0-1.57-22.02-33.82-22.8-32.25-.78-23.57,22.02-32.23,27.51s-11.02-3.14-19.67,2.37c-8.65,5.51-4.71,16.51-11.8,18.1-7.08,1.59-16.51-7.08-25.22-1.59-8.71,5.49-8.6,10.23-12.53,10.23s-11.8-3.16-16.51,0c-4.71,3.16-10.23,7.06-10.23,7.06h199.01s2.35-7.06-6.33-11.78Z" fill="none" stroke="#002346" stroke-miterlimit="10"></path>
    <path d="M362.06,72.53c-5.12-2.81-7.45-.47-9.31-2.81s5.12-8.38-8.87-14.44c0,0-.93-13.06-20.04-13.58s-13.99,13.06-19.11,16.32c-5.12,3.26-6.54-1.94-11.64,1.4s-2.79,9.7-6.98,10.73c-4.19,1.03-9.8-4.21-14.92-.95-5.12,3.26-5.14,6.07-7.47,6.07s-6.98-1.94-9.7,0c-2.72,1.94-6.07,4.19-6.07,4.19h117.95s1.3-4.13-3.82-6.93Z" fill="none" stroke="#002346" stroke-miterlimit="10"></path>
    <path d="M362.06,72.53c-5.12-2.81-7.45-.47-9.31-2.81s5.12-8.38-8.87-14.44c0,0-.93-13.06-20.04-13.58s-13.99,13.06-19.11,16.32c-5.12,3.26-6.54-1.94-11.64,1.4s-2.79,9.7-6.98,10.73c-4.19,1.03-9.8-4.21-14.92-.95-5.12,3.26-5.14,6.07-7.47,6.07s-6.98-1.94-9.7,0c-2.72,1.94-6.07,4.19-6.07,4.19h117.95s1.3-4.13-3.82-6.93Z" fill="none" stroke="#002346" stroke-miterlimit="10"></path>
    <path d="M302.15,273.25c-5.12-2.79-7.45-.47-9.33-2.79-1.88-2.33,5.14-8.4-8.85-14.45,0,0-.93-13.06-20.04-13.58-19.11-.52-13.99,13.06-19.11,16.32-5.12,3.26-6.54-1.94-11.64,1.4-5.1,3.34-2.79,9.8-7,10.73-4.21,.93-9.7-4.21-14.9-.93s-5.14,6.05-7.47,6.05-6.98-1.94-9.7,0c-2.72,1.94-6.05,4.19-6.05,4.19h117.95s1.28-4.13-3.84-6.93Z" fill="none" stroke="#002346" stroke-miterlimit="10"></path>
    <path d="M302.15,273.25c-5.12-2.79-7.45-.47-9.33-2.79-1.88-2.33,5.14-8.4-8.85-14.45,0,0-.93-13.06-20.04-13.58-19.11-.52-13.99,13.06-19.11,16.32-5.12,3.26-6.54-1.94-11.64,1.4-5.1,3.34-2.79,9.8-7,10.73-4.21,.93-9.7-4.21-14.9-.93s-5.14,6.05-7.47,6.05-6.98-1.94-9.7,0c-2.72,1.94-6.05,4.19-6.05,4.19h117.95s1.28-4.13-3.84-6.93Z" fill="none" stroke="#002346" stroke-miterlimit="10"></path>
    <g opacity=".5">
      <path d="M599.32,192.53c-8.65-4.71-12.57-.78-15.74-4.71-3.16-3.94,8.65-14.16-14.94-24.39,0,0-1.57-22.02-33.82-22.8-32.25-.78-23.57,22.02-32.23,27.51s-11.02-3.14-19.67,2.37c-8.65,5.51-4.71,16.51-11.8,18.1-7.08,1.59-16.51-7.08-25.22-1.59-8.71,5.49-8.6,10.23-12.53,10.23s-11.8-3.16-16.51,0c-4.71,3.16-10.23,7.06-10.23,7.06h199.01s2.35-7.06-6.33-11.78Z" fill="none" stroke="#002346" stroke-miterlimit="10"></path>
      <path d="M599.32,192.53c-8.65-4.71-12.57-.78-15.74-4.71-3.16-3.94,8.65-14.16-14.94-24.39,0,0-1.57-22.02-33.82-22.8-32.25-.78-23.57,22.02-32.23,27.51s-11.02-3.14-19.67,2.37c-8.65,5.51-4.71,16.51-11.8,18.1-7.08,1.59-16.51-7.08-25.22-1.59-8.71,5.49-8.6,10.23-12.53,10.23s-11.8-3.16-16.51,0c-4.71,3.16-10.23,7.06-10.23,7.06h199.01s2.35-7.06-6.33-11.78Z" fill="none" opacity=".5" stroke="#002346" stroke-miterlimit="10"></path>
    </g>
    <g opacity=".5">
      <path d="M362.06,72.53c-5.12-2.81-7.45-.47-9.31-2.81s5.12-8.38-8.87-14.44c0,0-.93-13.06-20.04-13.58s-13.99,13.06-19.11,16.32c-5.12,3.26-6.54-1.94-11.64,1.4s-2.79,9.7-6.98,10.73c-4.19,1.03-9.8-4.21-14.92-.95-5.12,3.26-5.14,6.07-7.47,6.07s-6.98-1.94-9.7,0c-2.72,1.94-6.07,4.19-6.07,4.19h117.95s1.3-4.13-3.82-6.93Z" fill="none" stroke="#002346" stroke-miterlimit="10"></path>
      <path d="M362.06,72.53c-5.12-2.81-7.45-.47-9.31-2.81s5.12-8.38-8.87-14.44c0,0-.93-13.06-20.04-13.58s-13.99,13.06-19.11,16.32c-5.12,3.26-6.54-1.94-11.64,1.4s-2.79,9.7-6.98,10.73c-4.19,1.03-9.8-4.21-14.92-.95-5.12,3.26-5.14,6.07-7.47,6.07s-6.98-1.94-9.7,0c-2.72,1.94-6.07,4.19-6.07,4.19h117.95s1.3-4.13-3.82-6.93Z" fill="none" opacity=".5" stroke="#002346" stroke-miterlimit="10"></path>
    </g>
    <g opacity=".5">
      <path d="M302.15,273.25c-5.12-2.79-7.45-.47-9.33-2.79-1.88-2.33,5.14-8.4-8.85-14.45,0,0-.93-13.06-20.04-13.58-19.11-.52-13.99,13.06-19.11,16.32-5.12,3.26-6.54-1.94-11.64,1.4-5.1,3.34-2.79,9.8-7,10.73-4.21,.93-9.7-4.21-14.9-.93s-5.14,6.05-7.47,6.05-6.98-1.94-9.7,0c-2.72,1.94-6.05,4.19-6.05,4.19h117.95s1.28-4.13-3.84-6.93Z" fill="none" stroke="#002346" stroke-miterlimit="10"></path>
      <path d="M302.15,273.25c-5.12-2.79-7.45-.47-9.33-2.79-1.88-2.33,5.14-8.4-8.85-14.45,0,0-.93-13.06-20.04-13.58-19.11-.52-13.99,13.06-19.11,16.32-5.12,3.26-6.54-1.94-11.64,1.4-5.1,3.34-2.79,9.8-7,10.73-4.21,.93-9.7-4.21-14.9-.93s-5.14,6.05-7.47,6.05-6.98-1.94-9.7,0c-2.72,1.94-6.05,4.19-6.05,4.19h117.95s1.28-4.13-3.84-6.93Z" fill="none" opacity=".5" stroke="#002346" stroke-miterlimit="10"></path>
    </g>
  </g>
  <line x1="24.02" y1="603.01" x2="841.74" y2="603.01" fill="none" stroke="#002346" stroke-linecap="round" stroke-linejoin="round"></line>
</svg>
